<?xml version="1.0" standalone="no"?>
<!DOCTYPE svg PUBLIC "-//W3C//DTD SVG 20010904//EN"
 "http://www.w3.org/TR/2001/REC-SVG-20010904/DTD/svg10.dtd">
<svg version="1.0" xmlns="http://www.w3.org/2000/svg"
 width="300.000000pt" height="300.000000pt" viewBox="0 0 300.000000 300.000000"
 preserveAspectRatio="xMidYMid meet">
<metadata>
Created by potrace 1.11, written by Peter Selinger 2001-2013
</metadata>
<g transform="translate(0.000000,300.000000) scale(0.100000,-0.100000)"
fill="#000000" stroke="none">
<path d="M1372 2874 c-197 -21 -330 -58 -487 -136 -262 -131 -476 -341 -608
-597 -67 -129 -98 -215 -128 -352 -33 -145 -33 -407 -1 -551 106 -479 435
-858 885 -1017 156 -55 272 -74 452 -75 229 0 397 36 590 129 400 192 674 549
761 991 27 133 24 377 -4 511 -42 193 -103 338 -211 501 -272 406 -773 645
-1249 596z m308 -129 c329 -50 637 -241 832 -515 93 -131 170 -313 206 -485
23 -113 23 -362 -1 -473 -111 -511 -478 -878 -989 -989 -114 -24 -361 -25
-475 0 -251 54 -448 157 -628 328 -358 343 -478 857 -310 1329 102 285 339
551 614 690 109 54 299 112 411 123 89 9 254 6 340 -8z"/>
<path d="M1213 2468 c-4 -7 -10 -198 -13 -424 l-5 -411 -145 48 c-153 52 -179
56 -198 37 -15 -15 -16 -65 -1 -74 7 -4 87 -33 178 -64 l166 -57 3 -433 c1
-300 6 -437 13 -447 15 -18 54 -17 73 3 14 13 16 66 16 425 0 325 3 409 13
409 7 0 71 -20 142 -43 l130 -44 3 -443 c2 -395 4 -446 19 -462 21 -23 45 -23
66 0 15 17 17 62 17 440 0 331 3 422 13 422 6 0 90 -27 186 -60 163 -56 176
-59 198 -45 30 20 30 60 0 80 -13 8 -103 41 -199 74 -97 32 -181 62 -187 65
-13 8 -16 666 -3 666 4 0 95 -31 201 -70 107 -38 202 -70 212 -70 37 0 61 46
41 78 -11 16 -468 181 -504 182 -58 0 -58 2 -58 -391 0 -197 -3 -359 -7 -358
-5 0 -69 21 -143 47 l-135 47 -3 424 c-2 378 -4 427 -19 443 -19 21 -58 24
-70 6z"/>
</g>
</svg>
